<svg width="136" height="25" viewBox="0 0 136 25" fill="none" xmlns="http://www.w3.org/2000/svg">
<g clip-path="url(#clip0_1_79109)">
<path d="M32.4617 19.2338V6.61426H36.4995C37.1725 6.61426 37.7802 6.77931 38.3207 7.10946C38.8613 7.43416 39.2912 7.87495 39.6104 8.43362C39.9352 8.98688 40.0966 9.60906 40.0966 10.3002C40.0966 10.9913 39.9315 11.6244 39.6014 12.1849C39.2767 12.7436 38.8413 13.1861 38.2935 13.5091C37.753 13.8338 37.1544 13.9952 36.4995 13.9952H33.7242V19.232H32.4617V19.2338ZM33.7242 12.7345H36.4016C36.846 12.7345 37.2523 12.6257 37.6187 12.4098C37.9906 12.1867 38.2863 11.8892 38.5021 11.5173C38.7234 11.1382 38.8359 10.7119 38.8359 10.2367C38.8359 9.76142 38.7252 9.33878 38.5021 8.96513C38.2863 8.58598 37.9906 8.2885 37.6187 8.07267C37.2523 7.84952 36.846 7.73888 36.4016 7.73888H33.7242V12.7327V12.7345Z" fill="#162B4E"/>
<path d="M44.2958 6.61426H45.8649L50.4613 19.2339H49.1188L48.1358 16.5293H42.0337L41.0506 19.2339H39.7083L44.2958 6.61426ZM42.4926 15.2668H47.6658L45.0795 8.16338L42.4926 15.2668Z" fill="#162B4E"/>
<path d="M60.2476 6.61426V7.87677H55.9211V19.2339H54.6588V7.87677H50.3418V6.61426H60.2476Z" fill="#162B4E"/>
<path d="M71.6031 6.61426V7.87677H67.2766V19.2339H66.0142V7.87677H61.6968V6.61426H71.6031Z" fill="#162B4E"/>
<path d="M73.4114 19.2339V6.61426H81.0918V7.87677H74.6742V11.8421H79.9832V13.1046H74.6742V17.9714H81.0918V19.2339H73.4114Z" fill="#162B4E"/>
<path d="M83.2014 19.2339V6.61426H87.482C88.1552 6.61426 88.763 6.77936 89.3032 7.10946C89.8438 7.43416 90.2736 7.87495 90.5929 8.43367C90.9104 8.98692 91.0703 9.6091 91.0703 10.3002C91.0703 10.9187 90.9433 11.4811 90.6912 11.9854C90.4391 12.4896 90.0925 12.9087 89.6554 13.2388C89.2217 13.5689 88.7318 13.7884 88.1859 13.8973L91.2678 19.2339H89.8074L86.7693 13.997H84.462V19.2339H83.1992H83.2014ZM84.4638 12.7345H87.375C87.8194 12.7345 88.2258 12.6257 88.5923 12.4098C88.964 12.1867 89.2599 11.8892 89.4756 11.5174C89.6987 11.1383 89.8096 10.712 89.8096 10.2367C89.8096 9.76146 89.6987 9.33882 89.4756 8.96513C89.2599 8.58603 88.964 8.28854 88.5923 8.07267C88.2258 7.84956 87.8194 7.73892 87.375 7.73892H84.4638V12.7327V12.7345Z" fill="#162B4E"/>
<path d="M93.499 19.2339V6.61426H94.8688L101.529 16.9538V6.61426H102.792V19.2339H101.432L94.7618 8.89439V19.2339H93.499Z" fill="#162B4E"/>
<path d="M0.5271 0.945312V12.9246H12.5064V0.945312H0.5271ZM8.36696 11.0272L6.52038 8.63827L4.68285 11.0272H2.11068L5.2379 6.97486L2.13607 2.94609H4.70824L6.52038 5.29516L8.34157 2.94609H10.9137L7.81192 6.97486L10.9392 11.0272H8.36696Z" fill="#162B4E"/>
<path d="M10.9391 11.0274H8.3669L6.52028 8.63846L4.68277 11.0274H2.1106L5.23784 6.97505L2.13599 2.94629H4.70816L6.52028 5.29535L8.34151 2.94629H10.9137L7.81182 6.97505L10.9391 11.0274Z" fill="#162B4E"/>
<path d="M24.4856 12.9248V24.9023H22.3216C22.5847 24.4488 22.8005 23.9499 22.9656 23.4058C23.1996 22.6294 23.3175 21.8022 23.3175 20.9207C23.3175 20.0391 23.1996 19.2138 22.9656 18.4446C22.7316 17.6683 22.3996 16.9862 21.9715 16.4003C21.5489 15.8126 21.0446 15.3537 20.4569 15.0254C19.871 14.6898 19.2216 14.5229 18.5123 14.5229C17.8031 14.5229 17.1537 14.6898 16.566 15.0254C15.9801 15.3537 15.4703 15.8126 15.035 16.4003C14.6069 16.9862 14.275 17.6683 14.041 18.4446C13.8052 19.2138 13.6891 20.0391 13.6891 20.9207C13.6891 21.8022 13.8052 22.6294 14.041 23.4058C14.206 23.9499 14.4219 24.4488 14.6849 24.9023H12.5063V12.9248H24.4856Z" fill="#162B4E"/>
<path d="M22.9655 18.4442C22.7315 17.6678 22.3995 16.9858 21.9714 16.3999C21.5488 15.8122 21.0445 15.3532 20.4568 15.0249C19.8709 14.6893 19.2215 14.5225 18.5123 14.5225C17.803 14.5225 17.1536 14.6893 16.5659 15.0249C15.98 15.3532 15.4702 15.8122 15.0349 16.3999C14.6068 16.9858 14.2749 17.6678 14.0409 18.4442C13.8051 19.2133 13.689 20.0386 13.689 20.9202C13.689 21.8018 13.8051 22.629 14.0409 23.4053C14.206 23.9495 14.4218 24.4484 14.6848 24.9019H22.3216C22.5846 24.4484 22.8004 23.9495 22.9655 23.4053C23.1995 22.629 23.3174 21.8018 23.3174 20.9202C23.3174 20.0386 23.1995 19.2133 22.9655 18.4442ZM20.7742 22.8503C20.5983 23.4561 20.3226 23.9459 19.9471 24.3214C19.5716 24.6987 19.0927 24.8855 18.5123 24.8855C17.9318 24.8855 17.4584 24.6987 17.0774 24.3214C16.7019 23.9405 16.4208 23.4489 16.2321 22.8503C16.0507 22.2444 15.96 21.6023 15.96 20.9202C15.96 20.4087 16.009 19.919 16.1088 19.4491C16.214 18.9721 16.37 18.5458 16.5749 18.1703C16.7872 17.7948 17.0502 17.4973 17.3676 17.2796C17.6906 17.0638 18.0715 16.955 18.5123 16.955C19.0691 16.955 19.5353 17.1363 19.9108 17.5009C20.2863 17.8583 20.5693 18.3372 20.7561 18.9376C20.9502 19.5362 21.0464 20.1983 21.0464 20.9202C21.0464 21.6023 20.9556 22.2444 20.7742 22.8503Z" fill="#162B4E"/>
<path d="M12.5064 12.9248V24.9023H10.2825C10.3115 24.8406 10.3405 24.7771 10.3677 24.7118C10.5927 24.1967 10.7033 23.647 10.7033 23.0648C10.7033 22.2793 10.5219 21.5646 10.1573 20.9261C9.79275 20.2858 9.29026 19.7707 8.64811 19.3843C8.01324 18.9961 7.27496 18.7875 6.43513 18.7585L5.7458 18.7403L6.06326 17.2075H10.2444V14.7768H4.08787L2.7383 21.171H5.96713C6.55483 21.171 7.01741 21.2599 7.35116 21.4358C7.68672 21.6063 7.92257 21.8349 8.05677 22.1233C8.19826 22.4099 8.26901 22.7256 8.26901 23.0648C8.26901 23.404 8.18375 23.7178 8.01324 23.9989C7.84818 24.2746 7.62508 24.496 7.34392 24.6592C7.10085 24.8043 6.8378 24.8841 6.55123 24.9023H6.29906C6.00703 24.8841 5.73675 24.8043 5.49007 24.6592C5.20888 24.496 4.98213 24.2746 4.81164 23.9989C4.64657 23.7178 4.56494 23.4058 4.56494 23.0648H2.13063C2.13063 23.7196 2.26667 24.3327 2.54058 24.9023H0.5271V12.9248H12.5064Z" fill="#0060E4"/>
<path d="M6.29905 24.902H2.54057C2.26666 24.3324 2.13062 23.7193 2.13062 23.0645H4.56493C4.56493 23.4055 4.64656 23.7174 4.81163 23.9986C4.98213 24.2743 5.20887 24.4957 5.49003 24.6589C5.73674 24.804 6.00702 24.8838 6.29905 24.902Z" fill="#0060E4"/>
<path d="M10.7033 23.0643C10.7033 23.6466 10.5926 24.1962 10.3677 24.7113C10.3405 24.7767 10.3115 24.8401 10.2825 24.9018H6.55121C6.83778 24.8837 7.10082 24.8039 7.3439 24.6587C7.62505 24.4955 7.84816 24.2742 8.01321 23.9985C8.18372 23.7173 8.26898 23.4053 8.26898 23.0643C8.26898 22.7233 8.19824 22.4095 8.05675 22.1228C7.92254 21.8344 7.68674 21.6059 7.35113 21.4354C7.01739 21.2594 6.5548 21.1705 5.9671 21.1705H2.73828L4.08786 14.7764H10.2444V17.207H6.06323L5.74582 18.7398L6.4351 18.758C7.27497 18.787 8.01321 18.9956 8.64813 19.3838C9.29024 19.7701 9.79272 20.2853 10.1573 20.9257C10.5219 21.5642 10.7033 22.2788 10.7033 23.0643Z" fill="#0060E4"/>
<path d="M12.5063 0.945312V12.9246H24.4856V0.945312H12.5063ZM22.4595 10.7189L14.7974 2.94609H22.4595V10.7189Z" fill="#0060E4"/>
<path d="M22.4595 2.94629V10.719L14.7974 2.94629H22.4595Z" fill="#0060E4"/>
<path d="M5.49003 24.6589C5.73674 24.804 6.00702 24.8838 6.29905 24.902H2.54057C2.26666 24.3324 2.13062 23.7193 2.13062 23.0645H4.56493C4.56493 23.4055 4.64656 23.7174 4.81163 23.9986C4.98213 24.2743 5.20887 24.4957 5.49003 24.6589Z" fill="white"/>
<path d="M10.7033 23.0643C10.7033 23.6466 10.5926 24.1962 10.3677 24.7113C10.3405 24.7767 10.3115 24.8401 10.2825 24.9018H6.55121C6.83778 24.8837 7.10082 24.8039 7.3439 24.6587C7.62505 24.4955 7.84816 24.2742 8.01321 23.9985C8.18372 23.7173 8.26898 23.4053 8.26898 23.0643C8.26898 22.7233 8.19824 22.4095 8.05675 22.1228C7.92254 21.8344 7.68674 21.6059 7.35113 21.4354C7.01739 21.2594 6.5548 21.1705 5.9671 21.1705H2.73828L4.08786 14.7764H10.2444V17.207H6.06323L5.74582 18.7398L6.4351 18.758C7.27497 18.787 8.01321 18.9956 8.64813 19.3838C9.29024 19.7701 9.79272 20.2853 10.1573 20.9257C10.5219 21.5642 10.7033 22.2788 10.7033 23.0643Z" fill="white"/>
<path d="M10.9391 11.0274H8.3669L6.52028 8.63846L4.68277 11.0274H2.1106L5.23784 6.97505L2.13599 2.94629H4.70816L6.52028 5.29535L8.34151 2.94629H10.9137L7.81182 6.97505L10.9391 11.0274Z" fill="white"/>
<path d="M22.9655 18.4442C22.7315 17.6678 22.3995 16.9858 21.9714 16.3999C21.5488 15.8122 21.0445 15.3532 20.4568 15.0249C19.8709 14.6893 19.2215 14.5225 18.5123 14.5225C17.803 14.5225 17.1536 14.6893 16.5659 15.0249C15.98 15.3532 15.4702 15.8122 15.0349 16.3999C14.6068 16.9858 14.2749 17.6678 14.0409 18.4442C13.8051 19.2133 13.689 20.0386 13.689 20.9202C13.689 21.8018 13.8051 22.629 14.0409 23.4053C14.206 23.9495 14.4218 24.4484 14.6848 24.9019H22.3216C22.5846 24.4484 22.8004 23.9495 22.9655 23.4053C23.1995 22.629 23.3174 21.8018 23.3174 20.9202C23.3174 20.0386 23.1995 19.2133 22.9655 18.4442ZM20.7742 22.8503C20.5983 23.4561 20.3226 23.9459 19.9471 24.3214C19.5716 24.6987 19.0927 24.8855 18.5123 24.8855C17.9318 24.8855 17.4584 24.6987 17.0774 24.3214C16.7019 23.9405 16.4208 23.4489 16.2321 22.8503C16.0507 22.2444 15.96 21.6023 15.96 20.9202C15.96 20.4087 16.009 19.919 16.1088 19.4491C16.214 18.9721 16.37 18.5458 16.5749 18.1703C16.7872 17.7948 17.0502 17.4973 17.3676 17.2796C17.6906 17.0638 18.0715 16.955 18.5123 16.955C19.0691 16.955 19.5353 17.1363 19.9108 17.5009C20.2863 17.8583 20.5693 18.3372 20.7561 18.9376C20.9502 19.5362 21.0464 20.1983 21.0464 20.9202C21.0464 21.6023 20.9556 22.2444 20.7742 22.8503Z" fill="white"/>
<path d="M21.0465 20.9204C21.0465 21.6024 20.9558 22.2445 20.7744 22.8504C20.5984 23.4563 20.3227 23.946 19.9472 24.3215C19.5718 24.6988 19.0929 24.8856 18.5124 24.8856C17.932 24.8856 17.4585 24.6988 17.0776 24.3215C16.7021 23.9406 16.421 23.449 16.2323 22.8504C16.0509 22.2445 15.9602 21.6024 15.9602 20.9204C15.9602 20.4088 16.0092 19.9191 16.109 19.4493C16.2142 18.9722 16.3702 18.5459 16.5751 18.1704C16.7874 17.7949 17.0504 17.4975 17.3678 17.2798C17.6907 17.0639 18.0716 16.9551 18.5124 16.9551C19.0693 16.9551 19.5355 17.1365 19.911 17.5011C20.2865 17.8584 20.5695 18.3373 20.7563 18.9377C20.9504 19.5363 21.0465 20.1984 21.0465 20.9204Z" fill="#162B4E"/>
<path d="M22.4595 2.94629V10.719L14.7974 2.94629H22.4595Z" fill="white"/>
<path d="M121.066 13.4784H116.155C115.849 13.4204 115.492 13.3914 115.085 13.3914H110.77L112.589 4.75879H120.824V8.25791H115.435L115.085 9.89225L115.832 9.91586C116.935 9.96117 117.913 10.246 118.76 10.7666C119.607 11.2872 120.273 11.9765 120.756 12.8309C120.873 13.0413 120.977 13.2571 121.066 13.4784Z" fill="#162B4E"/>
<path d="M121.477 15.6762C121.477 16.4544 121.33 17.189 121.035 17.8819C120.739 18.5749 120.331 19.1843 119.81 19.714C119.288 20.2346 118.682 20.6464 117.989 20.9493C117.298 21.245 116.554 21.3937 115.762 21.3937C114.681 21.3937 113.705 21.1325 112.834 20.6119C111.97 20.0822 111.287 19.3875 110.781 18.524C110.274 17.6515 110.022 16.7029 110.022 15.6762H113.521C113.521 16.0897 113.623 16.4634 113.826 16.7972C114.028 17.131 114.296 17.3994 114.63 17.6026C114.973 17.7967 115.35 17.8928 115.762 17.8928C116.173 17.8928 116.536 17.7967 116.87 17.6026C117.204 17.3994 117.472 17.131 117.675 16.7972C117.877 16.4634 117.978 16.0897 117.978 15.6762C117.978 15.2626 117.897 14.8871 117.733 14.5461C117.577 14.196 117.291 13.9148 116.87 13.7062C116.676 13.6065 116.442 13.5303 116.164 13.4795H121.066C121.339 14.1579 121.477 14.8907 121.477 15.6762Z" fill="#0060E4"/>
<path d="M135.434 13.4795C135.39 14.4409 135.236 15.3514 134.968 16.2131C134.656 17.2325 134.217 18.1304 133.649 18.9086C133.081 19.6868 132.405 20.2963 131.619 20.7407C130.841 21.176 129.987 21.3937 129.052 21.3937C128.118 21.3937 127.26 21.176 126.475 20.7407C125.697 20.2963 125.02 19.6868 124.445 18.9086C123.87 18.1304 123.422 17.2325 123.103 16.2131C122.841 15.3514 122.691 14.4409 122.649 13.4795H125.921C125.96 14.1198 126.067 14.7347 126.241 15.3279C126.468 16.0807 126.814 16.6992 127.28 17.1817C127.747 17.657 128.338 17.8928 129.052 17.8928C129.767 17.8928 130.368 17.657 130.826 17.1817C131.293 16.7083 131.636 16.0934 131.853 15.3388C132.022 14.7456 132.127 14.1252 132.163 13.4795H135.434Z" fill="#162B4E"/>
<path d="M135.447 12.9244C135.447 13.1112 135.443 13.2963 135.434 13.4795H132.163C132.174 13.2963 132.18 13.1112 132.18 12.9244C132.18 12.0301 132.064 11.2048 131.83 10.4502C131.596 9.69557 131.245 9.09332 130.779 8.64347C130.32 8.18453 129.746 7.95419 129.052 7.95419C128.508 7.95419 128.039 8.09385 127.641 8.37501C127.244 8.64711 126.917 9.01898 126.661 9.49422C126.404 9.9604 126.214 10.4901 126.09 11.0814C125.965 11.6709 125.903 12.2859 125.903 12.9244C125.903 13.1112 125.909 13.2963 125.922 13.4795H122.649C122.64 13.2963 122.636 13.1112 122.636 12.9244C122.636 11.758 122.792 10.6642 123.103 9.64658C123.422 8.61991 123.87 7.71657 124.445 6.94017C125.02 6.16198 125.697 5.55432 126.475 5.11898C127.26 4.67638 128.12 4.45508 129.052 4.45508C129.985 4.45508 130.841 4.67638 131.619 5.11898C132.405 5.55432 133.081 6.16198 133.649 6.94017C134.217 7.71657 134.656 8.61991 134.968 9.64658C135.287 10.6642 135.447 11.758 135.447 12.9244Z" fill="#0060E4"/>
</g>
<defs>
<clipPath id="clip0_1_79109">
<rect width="134.946" height="24" fill="white" transform="translate(0.5271 0.933594)"/>
</clipPath>
</defs>
</svg>
